{
	"asset":{
		"generator":"Khronos glTF Blender I/O v5.0.21",
		"version":"2.0"
	},
	"scene":0,
	"scenes":[
		{
			"name":"Scene",
			"nodes":[
				0,
				1,
				2,
				3,
				4,
				5
			]
		}
	],
	"nodes":[
		{
			"mesh":0,
			"name":"Landscape.008",
			"scale":[
				360.4810791015625,
				219.97616577148438,
				360.4810791015625
			]
		},
		{
			"mesh":1,
			"name":"Cube",
			"rotation":[
				0.0827578455209732,
				-0.0005563290324062109,
				0.006699159741401672,
				0.9965471029281616
			],
			"scale":[
				0.12758101522922516,
				0.2785997688770294,
				0.8083441257476807
			],
			"translation":[
				58.721763610839844,
				11.50595474243164,
				-196.63607788085938
			]
		},
		{
			"name":"B\u00e9zierCurve"
		},
		{
			"name":"B\u00e9zierCurve.001"
		},
		{
			"name":"B\u00e9zierCurve.002"
		},
		{
			"mesh":2,
			"name":"Joint Curve",
			"translation":[
				0,
				4.2530903816223145,
				0
			]
		}
	],
	"materials":[
		{
			"doubleSided":true,
			"name":"Material.002",
			"pbrMetallicRoughness":{
				"metallicFactor":0,
				"roughnessFactor":0.5
			}
		},
		{
			"doubleSided":true,
			"name":"Road",
			"pbrMetallicRoughness":{
				"baseColorFactor":[
					0.004407113417983055,
					0.010328109376132488,
					0.03097543865442276,
					1
				],
				"metallicFactor":0,
				"roughnessFactor":0.5
			}
		},
		{
			"doubleSided":true,
			"name":"Curb",
			"pbrMetallicRoughness":{
				"baseColorFactor":[
					0.729863166809082,
					0.6895175576210022,
					0.30602625012397766,
					1
				],
				"metallicFactor":0
			}
		},
		{
			"doubleSided":true,
			"name":"Material.001",
			"pbrMetallicRoughness":{
				"baseColorFactor":[
					0.02440018579363823,
					0.23511460423469543,
					0,
					1
				],
				"metallicFactor":0,
				"roughnessFactor":0.5
			}
		}
	],
	"meshes":[
		{
			"name":"Landscape.014",
			"primitives":[
				{
					"attributes":{
						"POSITION":0,
						"NORMAL":1,
						"TEXCOORD_0":2
					},
					"indices":3,
					"material":0
				},
				{
					"attributes":{
						"POSITION":4,
						"NORMAL":5,
						"TEXCOORD_0":6
					},
					"indices":7,
					"material":1
				},
				{
					"attributes":{
						"POSITION":8,
						"NORMAL":9,
						"TEXCOORD_0":10
					},
					"indices":11,
					"material":2
				}
			]
		},
		{
			"name":"Cube.001",
			"primitives":[
				{
					"attributes":{
						"POSITION":12,
						"NORMAL":13,
						"TEXCOORD_0":14
					},
					"indices":15,
					"material":3
				}
			]
		},
		{
			"name":"Mesh.005",
			"primitives":[
				{
					"attributes":{
						"POSITION":16,
						"NORMAL":17
					},
					"indices":18,
					"material":1
				},
				{
					"attributes":{
						"POSITION":19,
						"NORMAL":20
					},
					"indices":21,
					"material":2
				}
			]
		}
	],
	"accessors":[
		{
			"bufferView":0,
			"componentType":5126,
			"count":6642,
			"max":[
				1.0778193473815918,
				0.7817838788032532,
				1.032322883605957
			],
			"min":[
				-1.0000019073486328,
				0.047636426985263824,
				-1
			],
			"type":"VEC3"
		},
		{
			"bufferView":1,
			"componentType":5126,
			"count":6642,
			"type":"VEC3"
		},
		{
			"bufferView":2,
			"componentType":5126,
			"count":6642,
			"type":"VEC2"
		},
		{
			"bufferView":3,
			"componentType":5123,
			"count":29274,
			"type":"SCALAR"
		},
		{
			"bufferView":4,
			"componentType":5126,
			"count":7821,
			"max":[
				1.1309282779693604,
				0.6188254952430725,
				1.1545164585113525
			],
			"min":[
				-1.1083745956420898,
				0.20783929526805878,
				-0.995267927646637
			],
			"type":"VEC3"
		},
		{
			"bufferView":5,
			"componentType":5126,
			"count":7821,
			"type":"VEC3"
		},
		{
			"bufferView":6,
			"componentType":5126,
			"count":7821,
			"type":"VEC2"
		},
		{
			"bufferView":7,
			"componentType":5123,
			"count":7863,
			"type":"SCALAR"
		},
		{
			"bufferView":8,
			"componentType":5126,
			"count":8970,
			"max":[
				1.1353906393051147,
				0.6305758953094482,
				1.1607366800308228
			],
			"min":[
				-1.1133856773376465,
				0.2024700939655304,
				-0.9996823072433472
			],
			"type":"VEC3"
		},
		{
			"bufferView":9,
			"componentType":5126,
			"count":8970,
			"type":"VEC3"
		},
		{
			"bufferView":10,
			"componentType":5126,
			"count":8970,
			"type":"VEC2"
		},
		{
			"bufferView":11,
			"componentType":5123,
			"count":9024,
			"type":"SCALAR"
		},
		{
			"bufferView":12,
			"componentType":5126,
			"count":24,
			"max":[
				7.838156700134277,
				3.5893783569335938,
				3.0927422046661377
			],
			"min":[
				-7.838156700134277,
				-3.5893783569335938,
				-3.0927422046661377
			],
			"type":"VEC3"
		},
		{
			"bufferView":13,
			"componentType":5126,
			"count":24,
			"type":"VEC3"
		},
		{
			"bufferView":14,
			"componentType":5126,
			"count":24,
			"type":"VEC2"
		},
		{
			"bufferView":15,
			"componentType":5123,
			"count":36,
			"type":"SCALAR"
		},
		{
			"bufferView":16,
			"componentType":5126,
			"count":11855,
			"max":[
				407.6782531738281,
				136.3038330078125,
				416.18133544921875
			],
			"min":[
				-399.5480651855469,
				-11.249931335449219,
				-358.91180419921875
			],
			"type":"VEC3"
		},
		{
			"bufferView":17,
			"componentType":5126,
			"count":11855,
			"type":"VEC3"
		},
		{
			"bufferView":18,
			"componentType":5123,
			"count":17892,
			"type":"SCALAR"
		},
		{
			"bufferView":19,
			"componentType":5126,
			"count":17292,
			"max":[
				409.2868347167969,
				136.3038330078125,
				418.4236145019531
			],
			"min":[
				-401.3544616699219,
				-11.262149810791016,
				-360.3665466308594
			],
			"type":"VEC3"
		},
		{
			"bufferView":20,
			"componentType":5126,
			"count":17292,
			"type":"VEC3"
		},
		{
			"bufferView":21,
			"componentType":5123,
			"count":25956,
			"type":"SCALAR"
		}
	],
	"bufferViews":[
		{
			"buffer":0,
			"byteLength":79704,
			"byteOffset":0,
			"target":34962
		},
		{
			"buffer":0,
			"byteLength":79704,
			"byteOffset":79704,
			"target":34962
		},
		{
			"buffer":0,
			"byteLength":53136,
			"byteOffset":159408,
			"target":34962
		},
		{
			"buffer":0,
			"byteLength":58548,
			"byteOffset":212544,
			"target":34963
		},
		{
			"buffer":0,
			"byteLength":93852,
			"byteOffset":271092,
			"target":34962
		},
		{
			"buffer":0,
			"byteLength":93852,
			"byteOffset":364944,
			"target":34962
		},
		{
			"buffer":0,
			"byteLength":62568,
			"byteOffset":458796,
			"target":34962
		},
		{
			"buffer":0,
			"byteLength":15726,
			"byteOffset":521364,
			"target":34963
		},
		{
			"buffer":0,
			"byteLength":107640,
			"byteOffset":537092,
			"target":34962
		},
		{
			"buffer":0,
			"byteLength":107640,
			"byteOffset":644732,
			"target":34962
		},
		{
			"buffer":0,
			"byteLength":71760,
			"byteOffset":752372,
			"target":34962
		},
		{
			"buffer":0,
			"byteLength":18048,
			"byteOffset":824132,
			"target":34963
		},
		{
			"buffer":0,
			"byteLength":288,
			"byteOffset":842180,
			"target":34962
		},
		{
			"buffer":0,
			"byteLength":288,
			"byteOffset":842468,
			"target":34962
		},
		{
			"buffer":0,
			"byteLength":192,
			"byteOffset":842756,
			"target":34962
		},
		{
			"buffer":0,
			"byteLength":72,
			"byteOffset":842948,
			"target":34963
		},
		{
			"buffer":0,
			"byteLength":142260,
			"byteOffset":843020,
			"target":34962
		},
		{
			"buffer":0,
			"byteLength":142260,
			"byteOffset":985280,
			"target":34962
		},
		{
			"buffer":0,
			"byteLength":35784,
			"byteOffset":1127540,
			"target":34963
		},
		{
			"buffer":0,
			"byteLength":207504,
			"byteOffset":1163324,
			"target":34962
		},
		{
			"buffer":0,
			"byteLength":207504,
			"byteOffset":1370828,
			"target":34962
		},
		{
			"buffer":0,
			"byteLength":51912,
			"byteOffset":1578332,
			"target":34963
		}
	],
	"buffers":[
		{
			"byteLength":1630244,
			"uri":"demoTerrain.bin"
		}
	]
}
